<svg width="24" height="22" viewBox="0 0 24 22" fill="none" xmlns="http://www.w3.org/2000/svg">
<path d="M20.5066 3.60987C19.9959 3.09888 19.3894 2.69352 18.722 2.41696C18.0545 2.14039 17.3391 1.99805 16.6166 1.99805C15.8941 1.99805 15.1787 2.14039 14.5113 2.41696C13.8438 2.69352 13.2374 3.09888 12.7266 3.60987L11.6666 4.66987L10.6066 3.60987C9.57493 2.57818 8.17566 1.99858 6.71662 1.99858C5.25759 1.99858 3.85831 2.57818 2.82662 3.60987C1.79493 4.64156 1.21533 6.04084 1.21533 7.49987C1.21533 8.95891 1.79493 10.3582 2.82662 11.3899L3.88662 12.4499L11.6666 20.2299L19.4466 12.4499L20.5066 11.3899C21.0176 10.8791 21.423 10.2727 21.6995 9.60523C21.9761 8.93777 22.1184 8.22236 22.1184 7.49987C22.1184 6.77738 21.9761 6.06198 21.6995 5.39452C21.423 4.72706 21.0176 4.12063 20.5066 3.60987V3.60987Z" stroke="black" stroke-width="2" stroke-linecap="round" stroke-linejoin="round"/>
</svg>
