<svg width="24" height="22" viewBox="0 0 24 22" fill="none" xmlns="http://www.w3.org/2000/svg">
<path d="M21.1734 3.60987C20.6626 3.09888 20.0562 2.69352 19.3887 2.41696C18.7213 2.14039 18.0059 1.99805 17.2834 1.99805C16.5609 1.99805 15.8455 2.14039 15.178 2.41696C14.5106 2.69352 13.9041 3.09888 13.3934 3.60987L12.3334 4.66987L11.2734 3.60987C10.2417 2.57818 8.8424 1.99858 7.38337 1.99858C5.92434 1.99858 4.52506 2.57818 3.49337 3.60987C2.46168 4.64156 1.88208 6.04084 1.88208 7.49987C1.88208 8.95891 2.46168 10.3582 3.49337 11.3899L4.55337 12.4499L12.3334 20.2299L20.1134 12.4499L21.1734 11.3899C21.6844 10.8791 22.0897 10.2727 22.3663 9.60523C22.6428 8.93777 22.7852 8.22236 22.7852 7.49987C22.7852 6.77738 22.6428 6.06198 22.3663 5.39452C22.0897 4.72706 21.6844 4.12063 21.1734 3.60987V3.60987Z" stroke="black" stroke-width="2" stroke-linecap="round" stroke-linejoin="round"/>
</svg>
